<svg height="512pt" viewBox="-53 0 512 512" width="512pt" xmlns="http://www.w3.org/2000/svg"><path d="m374.894531 201.429688 25.792969-25.796876c5.859375-5.855468 5.859375-15.355468 0-21.210937l-42.425781-42.429687c-2.8125-2.8125-6.628907-4.390626-10.605469-4.390626s-7.792969 1.578126-10.605469 4.390626l-25.636719 25.640624c-14.933593-9.484374-31.183593-17.078124-48.410156-22.429687v-25.203125h22c8.28125 0 15-6.714844 15-15v-60c0-8.285156-6.71875-15-15-15h-164.132812c-8.285156 0-15 6.714844-15 15v60c0 8.285156 6.714844 15 15 15h22v25.207031c-82.667969 25.664063-142.871094 102.863281-142.871094 193.859375 0 111.898438 91.035156 202.933594 202.933594 202.933594 111.898437 0 202.9375-91.035156 202.9375-202.933594 0-39.511718-11.363282-76.417968-30.976563-107.636718zm-27.238281-57.617188 21.214844 21.214844-11.980469 11.980468c-6.523437-7.597656-13.59375-14.710937-21.15625-21.269531zm-211.785156-113.8125h134.128906v30h-134.128906zm37 60h60.132812v18.363281c-9.816406-1.464843-19.855468-2.230469-30.066406-2.230469-10.214844 0-20.253906.765626-30.066406 2.230469zm162.472656 330.171875-17.058594-17.058594c-5.855468-5.859375-15.351562-5.859375-21.210937 0-5.859375 5.855469-5.859375 15.355469 0 21.210938l17.066406 17.066406c-26.476563 22.289063-59.707031 36.789063-96.140625 39.945313v-24.203126c0-8.285156-6.714844-15-15-15-8.28125 0-15 6.714844-15 15v24.214844c-36.433594-3.128906-69.675781-17.605468-96.167969-39.871094l17.058594-17.058593c5.859375-5.855469 5.859375-15.355469 0-21.214844-5.855469-5.855469-15.355469-5.855469-21.210937 0l-17.070313 17.066406c-22.285156-26.476562-36.785156-59.707031-39.945313-96.136719h24.207032c8.28125 0 15-6.71875 15-15 0-8.285156-6.71875-15-15-15h-24.21875c3.132812-36.4375 17.609375-69.679687 39.875-96.171874l17.058594 17.058593c2.925781 2.929688 6.765624 4.394531 10.605468 4.394531 3.835938 0 7.675782-1.464843 10.605469-4.394531 5.855469-5.855469 5.855469-15.351562 0-21.210937l-17.066406-17.066406c26.476562-22.289063 59.707031-36.785157 96.136719-39.945313v24.203125c0 8.285156 6.71875 15 15 15 8.285156 0 15-6.714844 15-15v-24.214844c36.4375 3.128906 69.679687 17.605469 96.171874 39.871094l-17.058593 17.058594c-5.859375 5.855468-5.859375 15.355468 0 21.214844 2.925781 2.925781 6.765625 4.390624 10.605469 4.390624 3.835937 0 7.675781-1.464843 10.605468-4.390624l17.066406-17.070313c22.289063 26.480469 36.789063 59.710937 39.945313 96.140625h-24.203125c-8.285156 0-15 6.714844-15 15s6.714844 15 15 15h24.214844c-3.128906 36.4375-17.605469 69.675781-39.871094 96.171875zm0 0"/><path d="m256.261719 239.660156c-8.457031 4.347656-19.371094 8.960938-29.921875 13.425782-20.890625 8.832031-40.617188 17.175781-51.320313 26.878906-7.925781 7.191406-12.578125 17.035156-13.101562 27.726562-.523438 10.6875 3.148437 20.941406 10.335937 28.867188 7.898438 8.710937 18.777344 13.136718 29.699219 13.136718 9.605469 0 19.238281-3.425781 26.894531-10.367187 7.609375-6.898437 15.714844-21.6875 28.3125-45.238281 6.414063-11.992188 13.042969-24.390625 18.566406-32.964844 3.679688-5.703125 3.0625-13.171875-1.496093-18.199219-4.558594-5.03125-11.929688-6.371093-17.96875-3.265625zm-47.566407 77.445313c-4.109374 3.726562-10.488281 3.414062-14.214843-.699219-1.808594-1.988281-2.730469-4.566406-2.597657-7.25.128907-2.6875 1.300782-5.160156 3.289063-6.964844 5.574219-5.054687 19.023437-11.269531 32.835937-17.214844-6.671874 12.421876-15.683593 28.835938-19.3125 32.128907zm0 0"/></svg>